<svg xmlns="http://www.w3.org/2000/svg" xmlns:xlink="http://www.w3.org/1999/xlink" viewBox="0 0 24 24"><defs><radialGradient id="a" cx="2346.85795" cy="6886.9681" r="0.01026" gradientTransform="translate(-5243769.49411 -15280488.3278) scale(2234.37823 2218.75)" gradientUnits="userSpaceOnUse"><stop offset="0" stop-color="#34364e" stop-opacity="0.98"/><stop offset="1" stop-color="#0c0824"/></radialGradient></defs><title>Photoshop</title><path d="M3,1.02564H21a2.02613,2.02613,0,0,1,2,2.05128V20.92308a2.02613,2.02613,0,0,1-2,2.05128H3a2.02613,2.02613,0,0,1-2-2.05128V3.07692A2.02613,2.02613,0,0,1,3,1.02564Z" fill="url(#a)"/><path d="M2.96949,1.02564h18.061A1.99522,1.99522,0,0,1,23,3.04563V20.95437a1.99522,1.99522,0,0,1-1.96949,2.02H2.96949A1.99522,1.99522,0,0,1,1,20.95437V3.04563A1.99522,1.99522,0,0,1,2.96949,1.02564ZM3,24H21a3.0392,3.0392,0,0,0,3-3.07692V3.07692A3.0392,3.0392,0,0,0,21,0H3A3.0392,3.0392,0,0,0,0,3.07692V20.92308A3.0392,3.0392,0,0,0,3,24ZM16.18,10.84615c-.79,0-1.06.41026-1.06.74872s.18.62564,1.24,1.18975c1.57.77948,2.06,1.5282,2.06,2.62564,0,1.641-1.22,2.52307-2.87,2.52307a4.25865,4.25865,0,0,1-2-.441c-.07,0-.08-.082-.08-.1641v-1.5077c0-.10256,0-.13333.12-.08205a3.643,3.643,0,0,0,2,.60513c.79,0,1.12-.33846,1.12-.8s-.23-.69744-1.24-1.23077c-1.42-.69744-2-1.40513-2-2.58462a2.4871,2.4871,0,0,1,2.54012-2.43813q.11028.00375.21988.01762a4.49539,4.49539,0,0,1,1.79.28718.22753.22753,0,0,1,.1.20513v1.40513c0,.082,0,.13333-.15.10256a3.31439,3.31439,0,0,0-1.74-.46154ZM7.57,12.06667h.81c1.17,0,2.27-.42052,2.27-2.05129,0-1.30256-.79-1.959-2.12-1.959h-1ZM5.79,6.62051c0-.07179.14-.12307.22-.12307.65-.05129,1.56-.05129,2.56-.05129,2.77,0,3.85,1.559,3.85,3.54872,0,2.60513-1.84,3.72308-4.1,3.72308H7.54v3.93846c0,.082,0,.12308-.12.12308H5.92c-.08,0-.12,0-.12-.12308V6.62051Z" fill="#31c4ef"/></svg>