<?xml version="1.0" encoding="UTF-8"?>
<svg width="14px" height="18px" viewBox="0 0 14 18" version="1.1" xmlns="http://www.w3.org/2000/svg" xmlns:xlink="http://www.w3.org/1999/xlink">
    <!-- Generator: Sketch 48.2 (47327) - http://www.bohemiancoding.com/sketch -->
    <title>Secure Payment</title>
    <desc>Created with Sketch.</desc>
    <defs></defs>
    <g id="Home-page" stroke="none" stroke-width="1" fill="none" fill-rule="evenodd" transform="translate(-870.000000, -6729.000000)">
        <g id="Group-5" transform="translate(0.000000, 6207.000000)">
            <g id="Secure-Payment" transform="translate(865.000000, 519.000000)">
                <polygon id="Shape" points="0 0 24 0 24 24 0 24"></polygon>
                <path d="M16.6666667,8.83333333 L15.8333333,8.83333333 L15.8333333,7.16666667 C15.8333333,4.86666667 13.9666667,3 11.6666667,3 C9.36666667,3 7.5,4.86666667 7.5,7.16666667 L7.5,8.83333333 L6.66666667,8.83333333 C5.74583333,8.83333333 5,9.57916667 5,10.5 L5,18.8333333 C5,19.7541667 5.74583333,20.5 6.66666667,20.5 L16.6666667,20.5 C17.5875,20.5 18.3333333,19.7541667 18.3333333,18.8333333 L18.3333333,10.5 C18.3333333,9.57916667 17.5875,8.83333333 16.6666667,8.83333333 Z M11.6666667,16.3333333 C10.7458333,16.3333333 10,15.5875 10,14.6666667 C10,13.7458333 10.7458333,13 11.6666667,13 C12.5875,13 13.3333333,13.7458333 13.3333333,14.6666667 C13.3333333,15.5875 12.5875,16.3333333 11.6666667,16.3333333 Z M14.25,8.83333333 L9.08333333,8.83333333 L9.08333333,7.16666667 C9.08333333,5.74166667 10.2416667,4.58333333 11.6666667,4.58333333 C13.0916667,4.58333333 14.25,5.74166667 14.25,7.16666667 L14.25,8.83333333 Z" id="Shape" fill="#FF9F4B" fill-rule="nonzero"></path>
            </g>
        </g>
    </g>
</svg>