<svg xmlns="http://www.w3.org/2000/svg" viewBox="0 0 24 24"><title>Adobe XD</title><path d="M3,1.02564H21a2.02613,2.02613,0,0,1,2,2.05128V20.92308a2.02613,2.02613,0,0,1-2,2.05128H3a2.02613,2.02613,0,0,1-2-2.05128V3.07692A2.02613,2.02613,0,0,1,3,1.02564Z" fill="#2e001e"/><path d="M0,3.07692V20.92308A3.0392,3.0392,0,0,0,3,24H21a3.0392,3.0392,0,0,0,3-3.07692V3.07692A3.0392,3.0392,0,0,0,21,0H3A3.0392,3.0392,0,0,0,0,3.07692ZM3,1.02564H21a2.02613,2.02613,0,0,1,2,2.05128V20.92308a2.02613,2.02613,0,0,1-2,2.05128H3a2.02613,2.02613,0,0,1-2-2.05128V3.07692A2.02613,2.02613,0,0,1,3,1.02564Z" fill="#ff2bc1"/><path d="M17.4,11.1077a1.33929,1.33929,0,0,0-.58-.10257c-1.26,0-2.1,1.02564-2.1,2.64615,0,1.88718.86,2.64616,2,2.64616a1.847,1.847,0,0,0,.69-.11282V11.1077Zm-4.48,2.62564a3.938,3.938,0,0,1,3.57713-4.24843,3.77627,3.77627,0,0,1,.42287-.008,4.32065,4.32065,0,0,1,.52,0V6.81026a.10131.10131,0,0,1,.1-.10257h1.61c.08,0,.1,0,.1.082V16.1641a7.48844,7.48844,0,0,0,0,1.02564c0,.0718,0,.08206-.06.11282a5.87548,5.87548,0,0,1-2.56.59488c-2.17,0-3.72-1.37436-3.72-4.1641ZM9.51,12.0718l2.8,5.56923c0,.082,0,.1641-.06.1641H10.54a.19968.19968,0,0,1-.21-.13333q-1-2.05128-2-4.21539h0c-.6,1.37435-1.26,2.8718-1.9,4.22564a.18956.18956,0,0,1-.18.11282H4.61c-.1,0-.11-.08206-.06-.14359l2.74-5.40514L4.64,6.87178a.094.094,0,0,1,.007-.13035.08872.08872,0,0,1,.063-.02349H6.4c.1,0,.15,0,.18.11282.63,1.3641,1.27,2.70769,1.87,4.10256h0c.58-1.35385,1.22-2.71794,1.83-4.10256.05-.082.08-.13334.18-.13334h1.61c.08,0,.11.06154.06.15384l-2.64,5.2Z" fill="#ff2bc1"/></svg>