<svg xmlns="http://www.w3.org/2000/svg" xmlns:xlink="http://www.w3.org/1999/xlink" viewBox="0 0 24 24"><defs><radialGradient id="a" cx="2346.8581" cy="6847.91857" r="0.01" gradientTransform="translate(-5378225.29834 -15583428.33581) scale(2291.66992 2275.64125)" gradientUnits="userSpaceOnUse"><stop offset="0" stop-color="#423325" stop-opacity="0.98"/><stop offset="1" stop-color="#1c0a00"/></radialGradient></defs><title>Adobe illustrator</title><path d="M3,1.02564H21a2.02613,2.02613,0,0,1,2,2.05128V20.92308a2.02613,2.02613,0,0,1-2,2.05128H3a2.02613,2.02613,0,0,1-2-2.05128V3.07692A2.02613,2.02613,0,0,1,3,1.02564Z" fill="url(#a)"/><path d="M3,1.02564H21a2.02613,2.02613,0,0,1,2,2.05128V20.92308a2.02613,2.02613,0,0,1-2,2.05128H3a2.02613,2.02613,0,0,1-2-2.05128V3.07692A2.02613,2.02613,0,0,1,3,1.02564ZM3,24H21a3.0392,3.0392,0,0,0,3-3.07692V3.07692A3.0392,3.0392,0,0,0,21,0H3A3.0392,3.0392,0,0,0,0,3.07692V20.92308A3.0392,3.0392,0,0,0,3,24ZM15.72,9.57949c0-.08205,0-.12308.12-.12308h1.57c.08,0,.12,0,.12.12308v8.10256c0,.08206,0,.12308-.12.12308H15.86c-.1,0-.13,0-.13-.13333V9.57949Zm-.15-2.3282a1.00032,1.00032,0,1,1,1,1.02564.94845.94845,0,0,1-1-.89836A.98644.98644,0,0,1,15.57,7.25129Zm-4.5,5.70256c-.28-1.13846-.94-3.62051-1.19-4.82051h0c-.21,1.2-.74,3.23077-1.16,4.82051ZM8.33,14.60513l-.76,3.07692c0,.08206,0,.10257-.15.10257H5.92c-.1,0-.12,0-.1-.15385L8.66,7.42564a3.40381,3.40381,0,0,0,.1-.85128c0-.0718,0-.10256.08-.10256h2.1c.07,0,.1,0,.12.10256l3.18,11.10769c0,.08206,0,.13334-.08.13334H12.5c-.08,0-.13,0-.15-.09231l-.78-3.11795Z" fill="#ff7f18"/></svg>